# Blender v2.79 (sub 0) OBJ File: ''
# www.blender.org
mtllib CornellBox-Empty.mtl
o Enclosure_Cube.001
v 1.000000 -1.000000 -1.000000
v -1.000000 -1.000000 -1.000000
v -1.000000 -1.000000 1.000000
v 1.000000 -1.000000 1.000000
v -1.000000 1.000000 -1.000000
v -1.000000 1.000000 1.000000
v 1.000000 1.000000 -0.999999
v 0.999999 1.000000 1.000001
vn 0.0000 1.0000 0.0000
vn -1.0000 -0.0000 -0.0000
vn 1.0000 0.0000 0.0000
vn -0.0000 -0.0000 1.0000
usemtl Floor
s 1
f 1//1 2//1 3//1 4//1
usemtl RightWall
f 1//2 4//2 8//2 7//2
usemtl LeftWall
f 3//3 2//3 5//3 6//3
usemtl BackWall
f 7//4 5//4 2//4 1//4
